HIERARCHY
ROOT Hips
{
	OFFSET 0.000000 0.000000 0.000000
	CHANNELS 6 Xposition Yposition Zposition Zrotation Yrotation Xrotation 
	JOINT Spine1
	{
		OFFSET -0.013727 5.003763 -0.053727
		CHANNELS 3 Zrotation Yrotation Xrotation
		JOINT Spine2
		{
			OFFSET -0.000000 7.125301 -0.029825
			CHANNELS 3 Zrotation Yrotation Xrotation
			JOINT Chest
			{
				OFFSET -0.000001 7.550065 -0.815971
				CHANNELS 3 Zrotation Yrotation Xrotation
				JOINT Neck1
				{
					OFFSET -0.181676 26.311296 -0.553349
					CHANNELS 3 Zrotation Yrotation Xrotation
					JOINT Neck2
					{
						OFFSET -0.000003 7.709399 2.302585
						CHANNELS 3 Zrotation Yrotation Xrotation
						JOINT Head
						{
							OFFSET -0.000005 6.128913 1.953709
							CHANNELS 3 Zrotation Yrotation Xrotation
							JOINT HeadEnd
							{
								OFFSET 0.003598 16.065401 -1.835379
								CHANNELS 3 Zrotation Yrotation Xrotation
								End Site
								{
									OFFSET 0.000000 0.000000 0.000000
								}
							}
							JOINT Jaw
							{
								OFFSET 0.002637 0.475591 3.094941
								CHANNELS 3 Zrotation Yrotation Xrotation
								End Site
								{
									OFFSET 0.000000 0.000000 0.000000
								}
							}
							JOINT LeftEye
							{
								OFFSET 3.206381 5.380207 7.586883
								CHANNELS 3 Zrotation Yrotation Xrotation
								End Site
								{
									OFFSET 0.000000 0.000000 0.000000
								}
							}
							JOINT RightEye
							{
								OFFSET -3.222440 5.361867 7.558233
								CHANNELS 3 Zrotation Yrotation Xrotation
								End Site
								{
									OFFSET 0.000000 0.000000 0.000000
								}
							}
						}
					}
				}
				JOINT LeftShoulder
				{
					OFFSET 1.621652 23.237164 5.113413
					CHANNELS 3 Zrotation Yrotation Xrotation
					JOINT LeftArm
					{
						OFFSET 14.919845 -0.000000 -5.502326
						CHANNELS 3 Zrotation Yrotation Xrotation
						JOINT LeftForeArm
						{
							OFFSET 28.739313 0.000003 -0.002588
							CHANNELS 3 Zrotation Yrotation Xrotation
							JOINT LeftHand
							{
								OFFSET 27.093979 -0.000004 0.002608
								CHANNELS 3 Zrotation Yrotation Xrotation
								JOINT LeftHandThumb1
								{
									OFFSET 2.276481 -1.392046 3.191413
									CHANNELS 3 Zrotation Yrotation Xrotation
									JOINT LeftHandThumb2
									{
										OFFSET 4.012842 -1.828126 1.641656
										CHANNELS 3 Zrotation Yrotation Xrotation
										JOINT LeftHandThumb3
										{
											OFFSET 2.798516 0.000001 -0.000003
											CHANNELS 3 Zrotation Yrotation Xrotation
											JOINT LeftHandThumbEnd
											{
												OFFSET 3.180791 -0.000002 0.000003
												CHANNELS 3 Zrotation Yrotation Xrotation
												End Site
												{
													OFFSET 0.000000 0.000000 0.000000
												}
											}
										}
									}
								}
								JOINT LeftHandIndex1
								{
									OFFSET 3.247554 -0.531998 2.296170
									CHANNELS 3 Zrotation Yrotation Xrotation
									JOINT LeftHandIndex2
									{
										OFFSET 6.364580 0.012062 0.178599
										CHANNELS 3 Zrotation Yrotation Xrotation
										JOINT LeftHandIndex3
										{
											OFFSET 3.662367 0.000001 0.000001
											CHANNELS 3 Zrotation Yrotation Xrotation
											JOINT LeftHandIndex4
											{
												OFFSET 2.329241 0.000001 0.000002
												CHANNELS 3 Zrotation Yrotation Xrotation
												JOINT LeftHandIndexEnd
												{
													OFFSET 2.759619 -0.180539 -0.113023
													CHANNELS 3 Zrotation Yrotation Xrotation
													End Site
													{
														OFFSET 0.000000 0.000000 0.000000
													}
												}
											}
										}
									}
								}
								JOINT LeftHandMiddle1
								{
									OFFSET 3.163499 0.240982 1.000332
									CHANNELS 3 Zrotation Yrotation Xrotation
									JOINT LeftHandMiddle2
									{
										OFFSET 6.190778 -0.259276 -1.002549
										CHANNELS 3 Zrotation Yrotation Xrotation
										JOINT LeftHandMiddle3
										{
											OFFSET 4.356523 -0.000006 0.000001
											CHANNELS 3 Zrotation Yrotation Xrotation
											JOINT LeftHandMiddle4
											{
												OFFSET 2.996875 -0.000007 0.000000
												CHANNELS 3 Zrotation Yrotation Xrotation
												JOINT LeftHandMiddleEnd
												{
													OFFSET 2.304294 -0.294570 -0.031739
													CHANNELS 3 Zrotation Yrotation Xrotation
													End Site
													{
														OFFSET 0.000000 0.000000 0.000000
													}
												}
											}
										}
									}
								}
								JOINT LeftHandRing1
								{
									OFFSET 2.882642 -0.053650 -0.322543
									CHANNELS 3 Zrotation Yrotation Xrotation
									JOINT LeftHandRing2
									{
										OFFSET 5.854542 -0.486203 -1.373841
										CHANNELS 3 Zrotation Yrotation Xrotation
										JOINT LeftHandRing3
										{
											OFFSET 4.350581 0.000000 0.000004
											CHANNELS 3 Zrotation Yrotation Xrotation
											JOINT LeftHandRing4
											{
												OFFSET 2.651324 0.000007 0.000003
												CHANNELS 3 Zrotation Yrotation Xrotation
												JOINT LeftHandRingEnd
												{
													OFFSET 1.936110 0.077685 -0.000070
													CHANNELS 3 Zrotation Yrotation Xrotation
													End Site
													{
														OFFSET 0.000000 0.000000 0.000000
													}
												}
											}
										}
									}
								}
								JOINT LeftHandPinky1
								{
									OFFSET 2.865500 -0.310004 -1.600378
									CHANNELS 3 Zrotation Yrotation Xrotation
									JOINT LeftHandPinky2
									{
										OFFSET 5.087853 -1.331141 -1.771231
										CHANNELS 3 Zrotation Yrotation Xrotation
										JOINT LeftHandPinky3
										{
											OFFSET 3.070975 0.000003 0.000001
											CHANNELS 3 Zrotation Yrotation Xrotation
											JOINT LeftHandPinky4
											{
												OFFSET 1.549667 0.000000 0.000001
												CHANNELS 3 Zrotation Yrotation Xrotation
												JOINT LeftHandPinkyEnd
												{
													OFFSET 1.944895 -0.157801 0.057219
													CHANNELS 3 Zrotation Yrotation Xrotation
													End Site
													{
														OFFSET 0.000000 0.000000 0.000000
													}
												}
											}
										}
									}
								}
							}
						}
					}
				}
				JOINT RightShoulder
				{
					OFFSET -1.380118 23.180305 5.214158
					CHANNELS 3 Zrotation Yrotation Xrotation
					JOINT RightArm
					{
						OFFSET -15.037197 0.000012 -5.545604
						CHANNELS 3 Zrotation Yrotation Xrotation
						JOINT RightForeArm
						{
							OFFSET -28.736639 0.000002 -0.002597
							CHANNELS 3 Zrotation Yrotation Xrotation
							JOINT RightHand
							{
								OFFSET -27.133619 0.000001 0.002613
								CHANNELS 3 Zrotation Yrotation Xrotation
								JOINT RightHandThumb1
								{
									OFFSET -2.274036 -1.383990 3.163127
									CHANNELS 3 Zrotation Yrotation Xrotation
									JOINT RightHandThumb2
									{
										OFFSET -4.011429 -1.827468 1.640914
										CHANNELS 3 Zrotation Yrotation Xrotation
										JOINT RightHandThumb3
										{
											OFFSET -2.794935 -0.000003 -0.000003
											CHANNELS 3 Zrotation Yrotation Xrotation
											JOINT RightHandThumbEnd
											{
												OFFSET -3.183855 0.000003 -0.000000
												CHANNELS 3 Zrotation Yrotation Xrotation
												End Site
												{
													OFFSET 0.000000 0.000000 0.000000
												}
											}
										}
									}
								}
								JOINT RightHandIndex1
								{
									OFFSET -3.253269 -0.520059 2.282866
									CHANNELS 3 Zrotation Yrotation Xrotation
									JOINT RightHandIndex2
									{
										OFFSET -6.341918 0.012473 0.178265
										CHANNELS 3 Zrotation Yrotation Xrotation
										JOINT RightHandIndex3
										{
											OFFSET -3.654875 -0.000008 -0.000001
											CHANNELS 3 Zrotation Yrotation Xrotation
											JOINT RightHandIndex4
											{
												OFFSET -2.327586 0.000000 -0.000000
												CHANNELS 3 Zrotation Yrotation Xrotation
												JOINT RightHandIndexEnd
												{
													OFFSET -2.761789 -0.180657 -0.113079
													CHANNELS 3 Zrotation Yrotation Xrotation
													End Site
													{
														OFFSET 0.000000 0.000000 0.000000
													}
												}
											}
										}
									}
								}
								JOINT RightHandMiddle1
								{
									OFFSET -3.168105 0.246593 1.001030
									CHANNELS 3 Zrotation Yrotation Xrotation
									JOINT RightHandMiddle2
									{
										OFFSET -6.180829 -0.258836 -1.000896
										CHANNELS 3 Zrotation Yrotation Xrotation
										JOINT RightHandMiddle3
										{
											OFFSET -4.348906 0.000000 -0.000000
											CHANNELS 3 Zrotation Yrotation Xrotation
											JOINT RightHandMiddle4
											{
												OFFSET -3.000244 -0.000002 -0.000003
												CHANNELS 3 Zrotation Yrotation Xrotation
												JOINT RightHandMiddleEnd
												{
													OFFSET -2.302518 -0.294372 -0.031706
													CHANNELS 3 Zrotation Yrotation Xrotation
													End Site
													{
														OFFSET 0.000000 0.000000 0.000000
													}
												}
											}
										}
									}
								}
								JOINT RightHandRing1
								{
									OFFSET -2.885693 -0.067952 -0.308858
									CHANNELS 3 Zrotation Yrotation Xrotation
									JOINT RightHandRing2
									{
										OFFSET -5.854197 -0.486132 -1.373732
										CHANNELS 3 Zrotation Yrotation Xrotation
										JOINT RightHandRing3
										{
											OFFSET -4.338814 -0.000004 -0.000001
											CHANNELS 3 Zrotation Yrotation Xrotation
											JOINT RightHandRing4
											{
												OFFSET -2.654906 -0.000004 0.000003
												CHANNELS 3 Zrotation Yrotation Xrotation
												JOINT RightHandRingEnd
												{
													OFFSET -1.933570 0.077522 -0.000053
													CHANNELS 3 Zrotation Yrotation Xrotation
													End Site
													{
														OFFSET 0.000000 0.000000 0.000000
													}
												}
											}
										}
									}
								}
								JOINT RightHandPinky1
								{
									OFFSET -2.866429 -0.342798 -1.584145
									CHANNELS 3 Zrotation Yrotation Xrotation
									JOINT RightHandPinky2
									{
										OFFSET -5.091370 -1.332054 -1.772385
										CHANNELS 3 Zrotation Yrotation Xrotation
										JOINT RightHandPinky3
										{
											OFFSET -3.062666 -0.000006 0.000000
											CHANNELS 3 Zrotation Yrotation Xrotation
											JOINT RightHandPinky4
											{
												OFFSET -1.546527 0.000006 -0.000003
												CHANNELS 3 Zrotation Yrotation Xrotation
												JOINT RightHandPinkyEnd
												{
													OFFSET -1.945122 -0.157722 0.057211
													CHANNELS 3 Zrotation Yrotation Xrotation
													End Site
													{
														OFFSET 0.000000 0.000000 0.000000
													}
												}
											}
										}
									}
								}
							}
						}
					}
				}
			}
		}
	}
	JOINT LeftLeg
	{
		OFFSET 10.043214 -8.434526 2.595655
		CHANNELS 3 Zrotation Yrotation Xrotation
		JOINT LeftShin
		{
			OFFSET -0.000002 -43.221752 -0.802913
			CHANNELS 3 Zrotation Yrotation Xrotation
			JOINT LeftFoot
			{
				OFFSET 0.000001 -42.155094 -3.481523
				CHANNELS 3 Zrotation Yrotation Xrotation
				JOINT LeftToeBase
				{
					OFFSET 0.000000 -5.059475 13.231529
					CHANNELS 3 Zrotation Yrotation Xrotation
					JOINT LeftToeEnd
					{
						OFFSET -0.009607 -1.647615 6.513017
						CHANNELS 3 Zrotation Yrotation Xrotation
						End Site
						{
							OFFSET 0.000000 0.000000 0.000000
						}
					}
				}
			}
		}
	}
	JOINT RightLeg
	{
		OFFSET -10.047277 -8.295259 2.620317
		CHANNELS 3 Zrotation Yrotation Xrotation
		JOINT RightShin
		{
			OFFSET 0.000001 -43.362209 -0.805555
			CHANNELS 3 Zrotation Yrotation Xrotation
			JOINT RightFoot
			{
				OFFSET 0.000002 -42.117393 -3.478398
				CHANNELS 3 Zrotation Yrotation Xrotation
				JOINT RightToeBase
				{
					OFFSET -0.000001 -5.079609 13.284196
					CHANNELS 3 Zrotation Yrotation Xrotation
					JOINT RightToeEnd
					{
						OFFSET 0.009532 -1.634383 6.460591
						CHANNELS 3 Zrotation Yrotation Xrotation
						End Site
						{
							OFFSET 0.000000 0.000000 0.000000
						}
					}
				}
			}
		}
	}
}
MOTION
Frames: 4
Frame Time: 0.033333
1.335370 97.290054 -4.575114 3.986005 -6.688788 2.565644 0.335484 -0.132602 5.328439 -0.007860 -0.898321 -2.946671 0.031503 -2.144102 8.613991 -2.045953 3.234826 -0.368052 -1.438268 -3.229250 -3.690360 2.057243 -4.745020 -12.609781 0.000077 -0.000022 0.000006 -0.002641 0.040627 0.011516 0.663307 -3.707582 -10.592437 -0.672095 3.777346 -10.659691 5.577829 -11.356205 8.992372 -74.242722 -36.598400 3.674228 178.722412 -37.867508 -179.820877 1.929718 -2.013132 -17.785553 -5.882103 9.861279 0.702590 -10.936863 -0.360572 7.156198 0.000001 8.774814 -0.000002 -16.108383 17.997625 5.770567 -1.844032 2.498502 -2.507275 -10.163592 4.678941 4.621104 -20.976000 -0.000003 0.000004 -21.226255 2.451695 -3.593995 0.000001 -0.000006 -0.000003 -1.362681 2.240797 -0.746325 -21.334898 0.584909 3.008324 -13.821199 -0.000001 0.000005 -23.887135 -0.249078 -0.839477 -61.137108 2.245889 -1.480325 -0.294025 1.679686 0.833255 -14.218192 0.093213 1.300578 -34.212006 -0.287561 0.967168 -20.033180 0.964535 1.212840 0.000001 0.000003 0.000000 -3.440387 0.788231 0.501652 -15.928169 -3.167305 2.999703 -6.338820 -0.000000 0.000003 -18.123415 3.648177 -4.905662 -0.000005 0.000001 -0.000001 -4.221364 18.058031 5.665289 64.172363 46.960266 0.622050 -179.451935 54.137897 -179.795212 -7.691998 5.063191 -5.271089 2.243540 -5.255033 -3.180155 14.282875 -0.826593 6.952495 -0.000001 -12.690592 -0.000001 16.490301 -18.370726 3.224992 1.665665 -1.955919 -2.878296 4.727794 -4.170583 4.993917 11.020511 0.000003 -0.000001 12.109029 -3.735708 -2.866780 -0.000000 0.000000 0.000001 1.291985 -1.928548 -1.498089 14.800111 0.567466 3.865602 14.242553 -1.341735 -6.660648 19.631939 0.143926 -0.648244 50.453682 -0.781376 -5.981091 0.353028 -1.511149 -0.031941 20.222771 3.684307 2.316628 18.787245 0.000005 -0.000001 10.751610 -0.479868 1.397903 -0.000001 0.000000 0.000001 3.273804 0.305946 -0.580111 21.486794 11.830363 2.266131 8.162915 0.000002 -0.000001 18.399052 -3.798979 -4.940568 0.000003 0.000000 -0.000001 -1.711307 14.033520 -3.312825 0.091936 -0.302278 18.188736 -9.027328 19.591221 -18.058498 1.677475 -2.186379 -0.431401 -0.000000 0.000001 0.000002 -9.015450 3.764634 -29.361984 0.030558 0.322661 15.789970 7.818933 -1.695295 10.106018 -1.392052 0.852312 -0.250910 0.000000 -0.000000 -0.000001 
1.469712 97.194901 -4.503468 3.977297 -6.993499 3.031402 0.486688 -0.156470 5.451043 0.035820 -0.991709 -2.903037 0.398495 -2.280634 8.616808 -1.617186 3.187297 0.496346 -1.420047 -2.933855 -3.688668 1.750905 -4.357245 -12.211040 0.000077 -0.000023 0.000006 -0.002070 0.050808 0.005460 0.668398 -3.687131 -10.600235 -0.676850 3.789010 -10.661930 5.821682 -11.391642 8.946544 -74.169121 -37.142876 3.501322 178.653564 -37.971336 -179.790314 1.963656 -2.153105 -18.071609 -5.882101 9.861281 0.702590 -10.936859 -0.360574 7.156197 0.000001 8.774816 -0.000001 -16.029327 17.936867 5.836698 -1.844030 2.498504 -2.507274 -10.163589 4.678939 4.621103 -20.975996 -0.000006 0.000005 -21.226255 2.451692 -3.593993 0.000000 -0.000006 -0.000002 -1.362681 2.240797 -0.746323 -21.334894 0.584906 3.008321 -13.821197 -0.000003 0.000002 -23.887133 -0.249081 -0.839480 -61.084808 2.247453 -1.520517 -0.294025 1.679685 0.833255 -14.218194 0.093214 1.300579 -34.212002 -0.287568 0.967173 -20.033180 0.964534 1.212844 0.000000 0.000001 0.000000 -3.440385 0.788232 0.501654 -15.928167 -3.167310 2.999703 -6.338817 -0.000002 0.000001 -18.123413 3.648178 -4.905662 -0.000004 0.000001 -0.000000 -4.184156 18.076868 5.643235 64.183121 47.434807 0.620229 -179.483688 53.836239 -179.734268 -7.799798 5.383258 -4.534890 2.243539 -5.255033 -3.180156 14.282875 -0.826592 6.952495 -0.000005 -12.690592 0.000001 16.519863 -18.352762 3.239033 1.665665 -1.955919 -2.878297 4.727791 -4.170584 4.993917 11.020512 0.000004 -0.000001 12.109032 -3.735710 -2.866780 0.000000 -0.000000 0.000001 1.291984 -1.928548 -1.498088 14.800109 0.567471 3.865602 14.242553 -1.341733 -6.660649 19.631939 0.143928 -0.648244 50.506943 -0.781801 -5.929137 0.353028 -1.511150 -0.031941 20.222763 3.684308 2.316627 18.787245 0.000006 -0.000001 10.751610 -0.479867 1.397905 0.000001 0.000001 0.000001 3.273804 0.305947 -0.580110 21.486788 11.830363 2.266129 8.162916 0.000003 0.000000 18.399052 -3.798979 -4.940565 0.000002 0.000001 0.000001 -1.966438 14.173395 -4.151567 0.094876 -0.292639 18.901510 -9.049647 19.701603 -18.540157 1.679500 -2.199167 -0.360914 -0.000000 -0.000001 0.000002 -9.132523 3.936406 -30.187775 0.035952 0.324407 16.420952 8.074441 -1.670608 9.697722 -1.394270 0.848282 -0.158532 0.000000 -0.000000 -0.000001 
1.600765 97.106651 -4.388415 3.913028 -7.229035 3.389663 0.580404 -0.170741 5.514374 0.070039 -1.099853 -2.887436 0.718889 -2.383113 8.589520 -1.140281 3.064191 1.492837 -1.385594 -2.646856 -3.687648 1.519565 -4.046571 -11.756821 0.000077 -0.000023 0.000006 -0.002293 0.064433 0.001541 0.671929 -3.676811 -10.601114 -0.679014 3.799788 -10.660522 6.134829 -11.446468 8.875082 -74.396545 -37.591846 3.582357 178.644592 -38.048073 -179.804794 1.990946 -2.188802 -18.296152 -5.882101 9.861275 0.702590 -10.936861 -0.360573 7.156197 0.000002 8.774813 -0.000001 -15.949079 17.864637 5.848297 -1.844032 2.498503 -2.507276 -10.163589 4.678940 4.621100 -20.975998 -0.000006 0.000003 -21.226255 2.451691 -3.593995 0.000000 -0.000006 -0.000003 -1.362681 2.240795 -0.746323 -21.334892 0.584907 3.008317 -13.821197 -0.000003 0.000001 -23.887133 -0.249083 -0.839481 -60.966709 2.217999 -1.556235 -0.294025 1.679686 0.833256 -14.218194 0.093214 1.300578 -34.212006 -0.287569 0.967167 -20.033180 0.964529 1.212839 0.000001 0.000002 0.000001 -3.440386 0.788232 0.501656 -15.928167 -3.167307 2.999701 -6.338817 -0.000002 0.000000 -18.123415 3.648174 -4.905663 -0.000003 0.000002 -0.000002 -4.137314 18.039583 5.631011 64.282166 47.645905 0.486630 -179.543579 53.678131 -179.738617 -7.988129 5.592357 -3.978132 2.243540 -5.255031 -3.180156 14.282877 -0.826595 6.952496 -0.000002 -12.690590 0.000000 16.547176 -18.353371 3.234126 1.665664 -1.955920 -2.878297 4.727793 -4.170585 4.993919 11.020509 0.000003 -0.000001 12.109031 -3.735710 -2.866781 -0.000000 0.000000 0.000000 1.291986 -1.928549 -1.498089 14.800111 0.567468 3.865603 14.242553 -1.341733 -6.660651 19.631937 0.143929 -0.648244 50.605820 -0.806474 -5.900852 0.353028 -1.511149 -0.031939 20.222765 3.684308 2.316626 18.787245 0.000006 -0.000001 10.751610 -0.479868 1.397904 0.000000 0.000001 0.000000 3.273805 0.305947 -0.580111 21.486788 11.830363 2.266129 8.162916 0.000002 0.000000 18.399052 -3.798979 -4.940567 0.000003 0.000001 0.000000 -2.119475 14.251525 -4.805984 0.087859 -0.294746 19.543655 -9.068979 19.747370 -18.997927 1.680435 -2.193787 -0.266358 -0.000000 -0.000001 0.000002 -9.223833 4.098276 -30.912182 0.036759 0.320073 17.030394 8.309025 -1.658771 9.478067 -1.396470 0.856950 -0.076378 0.000000 -0.000000 -0.000001 
1.772350 97.055595 -4.290157 3.797988 -7.399685 3.645750 0.619286 -0.185510 5.492134 0.093489 -1.195930 -2.905131 0.970093 -2.451778 8.553699 -0.631276 2.885042 2.598634 -1.353480 -2.413476 -3.672811 1.401099 -3.785057 -11.266521 0.000077 -0.000023 0.000006 -0.004294 0.068004 -0.004940 0.674584 -3.665530 -10.582703 -0.686561 3.798358 -10.641327 6.515039 -11.507483 8.785933 -74.866837 -37.932907 3.894908 178.679337 -38.095016 -179.773453 1.928195 -2.146977 -18.655081 -5.882102 9.861278 0.702590 -10.936859 -0.360575 7.156196 -0.000000 8.774814 -0.000002 -15.877648 17.828436 5.927756 -1.844031 2.498502 -2.507278 -10.163589 4.678938 4.621103 -20.975998 -0.000005 0.000002 -21.226255 2.451692 -3.593993 0.000001 -0.000006 -0.000002 -1.362681 2.240795 -0.746324 -21.334890 0.584908 3.008318 -13.821198 -0.000002 0.000001 -23.887135 -0.249076 -0.839484 -60.838112 2.230926 -1.536875 -0.294026 1.679687 0.833255 -14.218194 0.093215 1.300579 -34.212002 -0.287563 0.967169 -20.033176 0.964537 1.212841 0.000000 0.000001 0.000001 -3.440386 0.788233 0.501655 -15.928169 -3.167306 2.999701 -6.338818 -0.000000 0.000000 -18.123415 3.648176 -4.905662 -0.000005 0.000002 -0.000000 -4.058922 17.906582 5.694858 64.570435 47.642868 0.342016 -179.525726 53.625183 -179.709930 -8.240473 5.738840 -3.656320 2.243540 -5.255033 -3.180155 14.282878 -0.826593 6.952496 -0.000001 -12.690591 0.000000 16.552557 -18.359453 3.226235 1.665665 -1.955921 -2.878298 4.727795 -4.170584 4.993918 11.020512 0.000004 -0.000001 12.109030 -3.735707 -2.866779 0.000000 0.000000 0.000000 1.291984 -1.928547 -1.498088 14.800109 0.567468 3.865604 14.242551 -1.341735 -6.660649 19.631937 0.143926 -0.648242 50.677105 -0.792973 -5.856060 0.353028 -1.511150 -0.031940 20.222769 3.684307 2.316628 18.787245 0.000005 0.000001 10.751610 -0.479867 1.397905 -0.000001 0.000000 0.000002 3.273803 0.305946 -0.580109 21.486794 11.830362 2.266130 8.162918 0.000001 0.000001 18.399055 -3.798979 -4.940568 0.000003 0.000000 0.000001 -2.196878 14.239223 -5.223906 0.084261 -0.312385 20.009666 -9.094529 19.839088 -19.328934 1.676560 -2.182304 -0.210595 -0.000000 -0.000001 0.000002 -9.243210 4.241439 -31.287769 0.043766 0.307333 17.267567 8.432779 -1.655835 9.318962 -1.398686 0.878003 -0.041794 0.000000 -0.000000 -0.000001 
